<?xml version="1.0" encoding="UTF-8" standalone="no"?>
<!-- Created with Inkscape (http://www.inkscape.org/) -->

<svg
   version="1.1"
   id="svg2"
   width="800"
   height="387.80133"
   viewBox="0 0 800 387.80133"
   sodipodi:docname="Logo San Isidro blanco.ai"
   xmlns:inkscape="http://www.inkscape.org/namespaces/inkscape"
   xmlns:sodipodi="http://sodipodi.sourceforge.net/DTD/sodipodi-0.dtd"
   xmlns="http://www.w3.org/2000/svg"
   xmlns:svg="http://www.w3.org/2000/svg">
  <defs
     id="defs6">
    <clipPath
       clipPathUnits="userSpaceOnUse"
       id="clipPath16">
      <path
         d="M 0,290.851 H 600 V 0 H 0 Z"
         id="path14" />
    </clipPath>
  </defs>
  <sodipodi:namedview
     id="namedview4"
     pagecolor="#ffffff"
     bordercolor="#000000"
     borderopacity="0.25"
     inkscape:showpageshadow="2"
     inkscape:pageopacity="0.0"
     inkscape:pagecheckerboard="0"
     inkscape:deskcolor="#d1d1d1" />
  <g
     id="g8"
     inkscape:groupmode="layer"
     inkscape:label="Logo San Isidro blanco"
     transform="matrix(1.3333333,0,0,-1.3333333,0,387.80133)">
    <g
       id="g10">
      <g
         id="g12"
         clip-path="url(#clipPath16)">
        <g
           id="g18"
           transform="translate(288.6536,156.0996)">
          <path
             d="m 0,0 c -5.161,0 -9.937,1.099 -14.327,3.293 0,4.033 0.208,8.956 0.624,14.771 h 0.622 c 2.254,-5.161 4.479,-8.914 6.674,-11.257 2.194,-2.344 4.716,-3.514 7.564,-3.514 3.084,0 5.546,0.919 7.386,2.758 1.838,1.838 2.758,4.271 2.758,7.297 0,1.66 -0.327,3.159 -0.979,4.494 -0.653,1.334 -1.721,2.625 -3.203,3.87 -1.484,1.246 -2.774,2.225 -3.871,2.937 -1.098,0.712 -2.745,1.691 -4.939,2.937 -2.255,1.245 -4.004,2.282 -5.25,3.114 -1.246,0.83 -2.655,1.942 -4.227,3.337 -1.572,1.393 -2.729,2.921 -3.47,4.582 -0.742,1.661 -1.112,3.5 -1.112,5.518 0,4.685 1.675,8.482 5.027,11.39 3.351,2.905 7.697,4.36 13.037,4.36 2.254,0 6.881,-0.86 13.881,-2.58 C 15.779,51.908 15.572,47.28 15.572,43.425 H 14.86 c -0.653,1.542 -1.187,2.758 -1.601,3.648 -0.416,0.89 -1.054,2.016 -1.913,3.382 -0.861,1.364 -1.736,2.431 -2.625,3.203 -0.89,0.77 -2.002,1.453 -3.337,2.047 -1.335,0.592 -2.803,0.889 -4.405,0.889 -2.789,0 -5.072,-0.816 -6.852,-2.446 -1.78,-1.633 -2.669,-3.754 -2.669,-6.363 0,-1.306 0.28,-2.536 0.845,-3.693 0.563,-1.157 1.482,-2.269 2.758,-3.337 1.275,-1.068 2.432,-1.957 3.471,-2.67 1.037,-0.711 2.505,-1.632 4.404,-2.758 2.136,-1.246 3.663,-2.151 4.583,-2.714 0.919,-0.564 2.239,-1.499 3.96,-2.803 1.72,-1.305 2.981,-2.491 3.782,-3.559 0.801,-1.068 1.542,-2.418 2.225,-4.049 0.681,-1.633 1.023,-3.367 1.023,-5.206 0,-4.983 -1.735,-9.062 -5.206,-12.235 C 9.833,1.586 5.397,0 0,0"
             style="fill:#ffffff;fill-opacity:1;fill-rule:nonzero;stroke:none"
             id="path20" />
        </g>
        <g
           id="g22"
           transform="translate(326.5606,177.9012)">
          <path
             d="m 0,0 h 19.666 l -9.7,22.691 H 9.344 Z m -17.708,-20.467 v 0.712 c 2.372,0.771 4.241,1.825 5.606,3.159 1.364,1.335 2.67,3.515 3.915,6.54 L 11.657,37.64 h 0.801 l 23.136,-50.721 c 1.008,-2.255 2.031,-3.826 3.07,-4.716 1.037,-0.89 2.654,-1.543 4.85,-1.958 v -0.712 c -8.069,0.178 -16.166,0.178 -24.293,0 v 0.712 c 0.178,0.058 0.414,0.118 0.712,0.178 1.482,0.356 2.565,0.652 3.248,0.89 0.681,0.236 1.319,0.608 1.913,1.112 0.592,0.503 0.89,1.112 0.89,1.825 0,0.77 -0.209,1.601 -0.623,2.491 l -4.36,10.055 H -1.335 l -3.025,-7.208 c -0.594,-1.423 -0.89,-2.7 -0.89,-3.826 0,-2.847 2.432,-4.687 7.297,-5.517 v -0.712 c -6.585,0.178 -13.17,0.178 -19.755,0"
             style="fill:#ffffff;fill-opacity:1;fill-rule:nonzero;stroke:none"
             id="path24" />
        </g>
        <g
           id="g26"
           transform="translate(426.6683,156.2778)">
          <path
             d="m 0,0 -39.598,47.429 h -0.623 l 0.178,-21.001 0.089,-16.017 c 0,-2.611 0.667,-4.509 2.002,-5.695 1.335,-1.187 3.929,-2.136 7.786,-2.847 V 1.157 c -7.534,0.178 -15.038,0.178 -22.513,0 v 0.712 c 3.44,0.77 5.753,1.748 6.941,2.936 1.186,1.186 1.779,3.055 1.779,5.606 v 38.531 c 0,2.55 -0.638,4.478 -1.913,5.784 -1.276,1.304 -3.545,2.283 -6.807,2.936 v 0.712 c 5.397,-0.178 10.796,-0.178 16.195,0 l 34.259,-41.2 h 0.712 L -1.869,33.369 V 49.12 c 0,2.669 -0.682,4.596 -2.047,5.784 -1.365,1.186 -3.915,2.105 -7.652,2.758 v 0.712 c 7.297,-0.178 14.623,-0.178 21.979,0 V 57.662 C 7.326,57.009 5.175,56.061 3.96,54.814 2.743,53.569 2.136,51.669 2.136,49.12 V 0 Z"
             style="fill:#ffffff;fill-opacity:1;fill-rule:nonzero;stroke:none"
             id="path28" />
        </g>
        <g
           id="g30"
           transform="translate(288.7426,83.3127)">
          <path
             d="M 0,0 C 0,-2.018 0.459,-3.426 1.379,-4.227 2.298,-5.028 4.36,-5.784 7.564,-6.496 v -0.712 c -8.069,0.178 -16.077,0.178 -24.026,0 v 0.712 c 3.203,0.712 5.264,1.468 6.184,2.269 0.919,0.801 1.38,2.209 1.38,4.227 v 42.802 c 0,2.016 -0.461,3.426 -1.38,4.227 -0.92,0.801 -2.981,1.557 -6.184,2.268 v 0.712 c 7.949,-0.178 15.957,-0.178 24.026,0 V 49.297 C 4.36,48.586 2.298,47.83 1.379,47.029 0.459,46.228 0,44.818 0,42.802 Z"
             style="fill:#ffffff;fill-opacity:1;fill-rule:nonzero;stroke:none"
             id="path32" />
        </g>
        <g
           id="g34"
           transform="translate(319.352,74.77)">
          <path
             d="m 0,0 c -5.161,0 -9.937,1.099 -14.327,3.293 0,4.033 0.208,8.956 0.624,14.771 h 0.622 c 2.254,-5.161 4.479,-8.914 6.674,-11.257 2.194,-2.344 4.716,-3.514 7.564,-3.514 3.084,0 5.546,0.919 7.386,2.758 1.838,1.838 2.758,4.271 2.758,7.297 0,1.66 -0.327,3.159 -0.979,4.494 -0.653,1.334 -1.721,2.625 -3.203,3.87 -1.484,1.246 -2.774,2.225 -3.871,2.937 -1.098,0.712 -2.745,1.691 -4.939,2.937 -2.255,1.245 -4.004,2.282 -5.25,3.114 -1.246,0.83 -2.655,1.942 -4.227,3.337 -1.572,1.393 -2.729,2.921 -3.47,4.582 -0.742,1.661 -1.112,3.5 -1.112,5.518 0,4.685 1.675,8.482 5.027,11.39 3.351,2.905 7.697,4.36 13.037,4.36 2.254,0 6.881,-0.86 13.881,-2.58 C 15.779,51.908 15.572,47.28 15.572,43.425 H 14.86 c -0.653,1.542 -1.187,2.758 -1.601,3.648 -0.416,0.89 -1.054,2.016 -1.913,3.382 -0.861,1.364 -1.736,2.431 -2.625,3.203 -0.89,0.77 -2.002,1.453 -3.337,2.047 -1.335,0.592 -2.803,0.889 -4.405,0.889 -2.789,0 -5.072,-0.816 -6.852,-2.446 -1.78,-1.633 -2.669,-3.753 -2.669,-6.363 0,-1.306 0.28,-2.536 0.845,-3.693 0.563,-1.157 1.482,-2.269 2.758,-3.337 1.275,-1.068 2.432,-1.957 3.471,-2.67 1.037,-0.711 2.505,-1.632 4.404,-2.758 2.136,-1.246 3.663,-2.151 4.583,-2.714 0.919,-0.564 2.239,-1.499 3.96,-2.803 1.72,-1.305 2.981,-2.491 3.782,-3.559 0.801,-1.068 1.542,-2.418 2.225,-4.049 0.681,-1.633 1.023,-3.367 1.023,-5.206 0,-4.983 -1.735,-9.062 -5.206,-12.235 C 9.833,1.586 5.397,0 0,0"
             style="fill:#ffffff;fill-opacity:1;fill-rule:nonzero;stroke:none"
             id="path36" />
        </g>
        <g
           id="g38"
           transform="translate(359.7516,83.3127)">
          <path
             d="M 0,0 C 0,-2.018 0.459,-3.426 1.379,-4.227 2.298,-5.028 4.36,-5.784 7.564,-6.496 v -0.712 c -8.069,0.178 -16.077,0.178 -24.026,0 v 0.712 c 3.203,0.712 5.264,1.468 6.184,2.269 0.919,0.801 1.38,2.209 1.38,4.227 v 42.802 c 0,2.016 -0.461,3.426 -1.38,4.227 -0.92,0.801 -2.981,1.557 -6.184,2.268 v 0.712 c 7.949,-0.178 15.957,-0.178 24.026,0 V 49.297 C 4.36,48.586 2.298,47.83 1.379,47.029 0.459,46.228 0,44.818 0,42.802 Z"
             style="fill:#ffffff;fill-opacity:1;fill-rule:nonzero;stroke:none"
             id="path40" />
        </g>
        <g
           id="g42"
           transform="translate(399.9713,79.3086)">
          <path
             d="m 0,0 c 6.703,0 11.938,2.238 15.706,6.718 3.766,4.478 5.65,10.634 5.65,18.464 0,8.423 -2.224,14.801 -6.673,19.132 -4.45,4.33 -10.798,6.496 -19.043,6.496 -2.077,0 -3.797,-0.089 -5.161,-0.267 V 0.356 C -7.327,0.118 -4.153,0 0,0 m -4.36,54.014 c 11.27,0.296 20.051,-1.9 26.339,-6.585 6.288,-4.687 9.433,-11.421 9.433,-20.2 0,-9.492 -2.892,-16.996 -8.676,-22.513 -5.784,-5.517 -13.63,-8.156 -23.537,-7.92 -8.424,0.178 -16.818,0.178 -25.183,0 v 0.712 c 3.144,0.712 5.176,1.468 6.096,2.269 0.919,0.801 1.379,2.209 1.379,4.227 v 42.802 c 0,2.075 -0.445,3.499 -1.334,4.271 -0.89,0.77 -2.937,1.513 -6.141,2.224 v 0.713 c 6.644,-0.179 13.852,-0.179 21.624,0"
             style="fill:#ffffff;fill-opacity:1;fill-rule:nonzero;stroke:none"
             id="path44" />
        </g>
        <g
           id="g46"
           transform="translate(459.235,103.8682)">
          <path
             d="m 0,0 c 3.262,0 6.065,1.231 8.409,3.693 2.343,2.461 3.515,5.651 3.515,9.566 0,4.211 -1.217,7.43 -3.648,9.655 -2.433,2.224 -5.962,3.336 -10.589,3.336 -0.772,0 -1.78,-0.089 -3.026,-0.266 V 1.068 C -3.501,0.356 -1.721,0 0,0 m 18.153,-15.305 c 4.389,-7.179 8.216,-11.094 11.479,-11.746 v -0.712 c -3.797,-0.89 -6.437,-1.335 -7.92,-1.335 -3.323,0 -6.021,1.78 -8.097,5.339 L 1.602,-3.204 H 0.534 c -2.077,0 -4.035,0.357 -5.873,1.068 v -18.419 c 0,-2.018 0.489,-3.426 1.468,-4.227 0.979,-0.801 3.218,-1.558 6.719,-2.269 v -0.712 c -8.247,0.178 -16.463,0.178 -24.649,0 v 0.712 c 3.203,0.711 5.264,1.468 6.184,2.269 0.919,0.801 1.38,2.209 1.38,4.227 v 42.801 c 0,2.016 -0.461,3.426 -1.38,4.227 -0.92,0.801 -2.981,1.557 -6.184,2.269 v 0.712 c 6.229,-0.178 12.932,-0.178 20.11,0 7.297,0.236 12.977,-1.098 17.041,-4.004 4.063,-2.908 6.095,-6.734 6.095,-11.48 0,-3.381 -1.067,-6.466 -3.203,-9.254 -2.136,-2.789 -4.983,-4.865 -8.543,-6.228 z"
             style="fill:#ffffff;fill-opacity:1;fill-rule:nonzero;stroke:none"
             id="path48" />
        </g>
        <g
           id="g50"
           transform="translate(520.4564,78.0625)">
          <path
             d="m 0,0 c 5.575,0 10.055,2.254 13.437,6.763 3.381,4.507 5.072,10.44 5.072,17.797 0,8.66 -1.824,15.617 -5.473,20.867 -3.648,5.25 -8.587,7.875 -14.816,7.875 -5.517,0 -9.966,-2.269 -13.347,-6.807 -3.382,-4.538 -5.072,-10.456 -5.072,-17.753 0,-8.602 1.868,-15.543 5.606,-20.822 C -10.856,2.639 -5.993,0 0,0 m -0.445,56.594 c 8.543,0 15.513,-2.7 20.911,-8.097 5.398,-5.399 8.098,-12.4 8.098,-21.001 0,-8.84 -2.892,-16.181 -8.676,-22.024 -5.784,-5.843 -12.829,-8.765 -21.134,-8.765 -8.542,0 -15.514,2.714 -20.911,8.143 -5.399,5.428 -8.098,12.413 -8.098,20.956 0,8.66 2.862,15.957 8.587,21.89 5.724,5.931 12.799,8.898 21.223,8.898"
             style="fill:#ffffff;fill-opacity:1;fill-rule:nonzero;stroke:none"
             id="path52" />
        </g>
        <g
           id="g54"
           transform="translate(149.0587,53.3875)">
          <path
             d="m 0,0 c -18.572,0 -36.303,5.467 -51.359,15.634 13.51,11.779 27.298,20.085 40.769,25.872 -0.379,-1.108 -0.809,-2.2 -1.36,-3.252 -1.607,-3.067 -4.577,-5.505 -6.878,-8.157 -0.952,-1.097 -2.138,-2.195 -3.037,-3.381 -4.249,-2.86 -8.308,-5.501 -12.415,-7.16 -0.61,-0.247 -0.909,-0.953 -0.668,-1.577 0.184,-0.479 0.632,-0.77 1.105,-0.77 0.145,0 0.293,0.027 0.436,0.085 4.748,1.919 9.519,5.141 14.132,8.256 3.769,2.545 8.417,4.635 13.042,6.186 4.926,1.426 10.793,2.421 14.949,2.079 3.866,-0.318 5.307,-0.363 6.855,0.033 1.559,0.4 1.396,1.501 1.028,2.691 -0.346,1.116 -2.499,2.388 -3.048,4.625 -0.383,1.565 -1.007,5.203 -1.343,6.767 -0.088,0.409 -0.171,0.803 -0.25,1.184 7.825,1.966 15.407,3.212 22.618,3.956 V 38.65 c 0,-0.435 0.298,-0.814 0.724,-0.909 L 54.534,33.959 54.45,33.95 69.007,31.14 C 67.744,29.713 66.439,28.316 65.081,26.957 47.697,9.574 24.584,0 0,0 m -71.196,33.696 c 0.611,0.157 1.311,0.249 2.154,0.249 2.627,0 3.872,-0.882 5.315,-1.903 1.515,-1.073 3.232,-2.289 6.525,-2.289 3.294,0 5.011,1.216 6.526,2.289 1.443,1.021 2.688,1.903 5.315,1.903 2.627,0 3.873,-0.882 5.315,-1.903 0.752,-0.532 1.556,-1.097 2.575,-1.533 -5.571,-3.777 -11.135,-8.071 -16.655,-12.929 -3.853,2.813 -7.517,5.94 -10.955,9.377 -2.16,2.161 -4.199,4.41 -6.115,6.739 m 6.115,123.423 c 2.054,2.054 4.19,3.995 6.397,5.828 v -34.741 c -0.495,0.038 -1.083,0.05 -1.188,0.045 -0.567,-0.028 -1.124,-0.144 -1.65,-0.339 -1.101,-0.409 -2.092,-1.047 -2.933,-1.805 -0.827,-0.746 -1.561,-1.622 -1.575,-2.725 -0.012,-0.96 0.393,-1.983 1.281,-2.557 0.198,-0.128 0.415,-0.23 0.644,-0.304 0.92,-0.296 1.988,-0.025 2.85,0.316 0.187,0.074 0.363,0.089 0.522,0.059 0.627,0.064 1.149,-0.764 0.627,-1.227 -0.937,-0.831 -2.288,-0.909 -3.315,-1.579 -0.856,-0.558 -1.325,-1.47 -1.571,-2.373 -0.221,-0.81 -0.285,-1.659 -0.226,-2.491 0.02,-0.295 0.065,-0.59 0.134,-0.88 0.068,-0.287 0.157,-0.57 0.256,-0.849 0.248,-0.699 1.246,-0.978 1.958,-1.187 0.911,-0.266 1.882,-0.364 2.835,-0.29 0.306,-0.973 0.748,-1.924 1.351,-2.754 v -44.83 h 1.566 v 43.273 c 0.744,-0.522 1.625,-0.899 2.67,-1.055 1.539,-0.232 3.085,0.133 4.355,0.936 0.258,0.158 0.5,0.34 0.72,0.532 0.113,0.099 0.471,0.003 0.606,-0.009 0.738,-0.061 1.504,-0.082 2.243,-0.202 0.758,-0.123 1.447,-0.441 2.198,-0.577 0.059,-0.42 0.182,-0.837 0.385,-1.207 l -11.239,-41.946 1.512,-0.405 11.048,41.231 c 0.653,-0.22 1.334,-0.122 1.995,0.129 0.709,0.271 1.402,0.231 2.161,0.168 1.237,-0.104 2.617,-0.168 3.728,0.374 0.164,-0.256 0.33,-0.522 0.473,-0.803 0.3,-0.591 0.052,-1.265 0.199,-1.884 0.324,-1.371 1.743,-1.972 3.189,-1.877 -0.018,-0.001 0.35,-0.747 0.395,-0.812 0.024,-0.035 0.053,-0.068 0.079,-0.102 l -21.461,-37.172 1.355,-0.783 21.303,36.898 c 1.498,-0.846 3.402,-0.631 5.135,-0.453 1.578,0.168 3.266,0.316 4.558,1.213 0.099,0.063 0.192,0.137 0.286,0.212 0.627,0.512 1.044,1.182 1.226,1.892 0.037,0.145 0.321,0.225 0.522,0.271 0.219,-0.976 0.541,-1.95 0.846,-2.68 0.509,-1.219 1.266,-2.618 2.132,-4.086 l -34.457,-34.457 1.107,-1.107 34.182,34.182 c 1.988,-3.232 4.31,-6.641 5.658,-9.163 0.587,-1.099 1.122,-2.215 1.55,-3.36 l -40.2,-23.209 0.783,-1.356 39.914,23.045 c 0.266,-0.986 0.433,-1.997 0.457,-3.043 0.086,-3.745 -0.115,-7.537 -0.504,-11.326 L -45.128,53.236 -44.723,51.724 -6.2,62.046 c -0.367,-3.14 -0.849,-6.273 -1.406,-9.369 -0.325,-1.811 -0.539,-3.807 -1.177,-5.552 -0.18,-0.493 -0.345,-0.991 -0.506,-1.49 -0.27,-0.111 -0.54,-0.22 -0.811,-0.333 -2.435,0.062 -3.646,0.914 -5.036,1.898 -1.515,1.072 -3.232,2.288 -6.526,2.288 -3.294,0 -5.011,-1.216 -6.527,-2.288 -1.442,-1.021 -2.688,-1.904 -5.316,-1.904 -2.627,0 -3.873,0.883 -5.316,1.904 -1.515,1.072 -3.232,2.288 -6.527,2.288 -1.207,0 -2.201,-0.164 -3.053,-0.424 -0.034,5.217 -4.279,9.439 -9.501,9.439 -5.118,0 -9.292,-4.053 -9.484,-9.128 v 0 c -0.503,0.072 -1.049,0.113 -1.647,0.113 -3.295,0 -5.013,-1.216 -6.529,-2.288 -1.138,-0.806 -2.158,-1.524 -3.828,-1.791 -1.886,3.199 -3.571,6.502 -5.048,9.894 l 13.359,-3.579 0.405,1.512 -14.538,3.896 c -1.133,2.766 -2.13,5.589 -2.986,8.46 l 18.272,-10.55 0.783,1.356 -19.672,11.357 c -1.211,4.459 -2.086,9.026 -2.616,13.671 l 23.478,-23.478 1.107,1.107 -24.832,24.832 c -0.235,2.695 -0.36,5.413 -0.36,8.151 0,4.375 0.309,8.702 0.905,12.959 l 25.838,-44.752 1.355,0.783 -26.814,46.443 c 1.598,9.517 4.672,18.651 9.106,27.132 l 19.514,-72.827 1.512,0.405 -19.943,74.431 c 4.125,7.431 9.309,14.332 15.484,20.507 M -0.565,96.728 c 0.119,0.538 0.287,1.064 0.373,1.608 0.093,0.597 0.155,1.199 0.196,1.801 0.036,0.544 0.076,1.108 0.048,1.66 0.992,0.513 1.752,1.215 2.321,2.039 10e-4,0 0.003,0.001 0.004,0.001 0.007,-0.203 0.016,-0.411 0.027,-0.628 0.065,-1.456 0.183,-3.145 0.243,-4.268 C 2.755,97.088 2.216,94.677 1.605,92.954 1.583,92.897 1.45,92.53 1.331,91.988 c -0.207,0.05 -0.442,0.177 -0.762,0.403 -0.359,0.254 -0.59,0.592 -0.84,0.948 -0.697,0.992 -0.539,2.287 -0.294,3.389 m 8.39,23.721 c -0.07,0.646 0.966,1.349 1.863,1.723 0,0 0.691,0.25 0.76,0 0.069,-0.249 -1.312,-1.621 -1.312,-1.723 0,-0.102 -0.381,-1.581 -0.381,-1.581 0,0 -0.861,0.935 -0.93,1.581 m -2.472,-16.31 c 0.009,0.04 0.018,0.08 0.028,0.12 0.336,-0.048 0.596,-0.283 0.922,-0.424 0.882,-0.384 1.26,-0.74 2.071,-0.832 1.289,-0.147 1.196,0.211 1.577,0.074 0.047,-0.111 0.092,-0.223 0.141,-0.334 0.268,-0.61 0.615,-1.185 0.856,-1.805 0.28,-0.722 0.492,-1.363 0.721,-2.099 0.116,-0.367 0.263,-0.68 0.441,-1.187 0.124,-0.354 0.306,-0.665 0.337,-1.045 0.039,-0.495 -0.119,-1.056 -0.469,-1.436 -0.04,-0.044 -0.084,-0.086 -0.131,-0.125 -0.688,-0.571 -6.413,-3.517 -6.327,-2.094 0.19,3.061 -0.232,8.104 -0.167,11.187 m 15.885,-2.009 c -0.192,-0.446 -0.41,-0.882 -0.675,-1.296 -0.496,-0.774 -1.113,-1.264 -1.876,-1.796 -0.363,-0.254 -0.627,-0.424 -1.804,-1.149 -0.151,-0.092 -0.764,0.907 -0.828,1.001 -0.484,0.72 -1.085,1.382 -1.465,2.158 -0.292,0.594 -0.488,1.224 -0.661,1.857 0.666,-0.562 1.142,-1.105 1.9,-1.326 1.132,-0.328 2.152,-0.058 2.751,0.927 0.812,-0.395 1.758,-0.525 2.658,-0.376 m -3.3,18.229 c 1.898,-0.01 3.437,1.281 4.74,2.538 0.022,0.019 0.044,0.034 0.061,0.054 0.605,0.512 1.116,1.118 1.484,1.784 0.017,-1.001 -0.831,-2.039 0.934,-4.023 -1.001,0.138 -0.558,0.208 -2.078,0.141 -1.178,-0.052 -2.1,-0.189 -2.765,-1.061 -0.143,-0.187 -0.226,-0.404 -0.358,-0.591 -0.489,-0.675 -1.517,-0.794 -2.265,-1.232 -1.028,-0.606 -1.446,-1.912 -0.935,-2.907 -2.16,0.482 -3.139,1.165 -5.749,0.395 0.941,0.703 0.532,1.107 0.927,1.699 0.11,0.167 0.22,0.35 0.407,0.458 0.264,0.143 0.6,0.099 0.908,0.123 0.621,0.049 1.198,0.419 1.451,0.927 0.214,0.433 0.214,0.951 0.55,1.32 0.599,0.656 1.743,0.38 2.688,0.375 m 14.205,40.587 c -0.018,-0.176 -0.106,-0.398 -0.298,-0.384 -0.076,0.007 -0.143,0.051 -0.22,0.064 -0.218,0.032 -0.353,-0.232 -0.297,-0.426 0.051,-0.191 0.201,-0.36 0.233,-0.557 0.053,-0.344 -0.362,-0.67 -0.733,-0.574 -0.16,0.036 -0.292,0.134 -0.412,0.23 -0.451,0.335 -0.907,0.673 -1.356,1.011 -0.164,0.125 -0.337,0.249 -0.538,0.319 -0.235,0.079 -0.494,0.077 -0.747,0.065 -0.605,-0.02 -1.266,-0.035 -1.739,0.307 -0.412,0.298 -0.565,0.797 -0.694,1.257 -0.05,0.183 -0.107,0.384 -0.047,0.57 0.055,0.164 0.188,0.297 0.323,0.415 0.346,0.309 0.753,0.574 1.224,0.699 0.649,0.172 1.317,-0.082 1.872,-0.386 0.131,-0.072 0.257,-0.153 0.362,-0.254 0.157,-0.152 0.286,-0.326 0.404,-0.504 0.272,-0.413 0.56,-0.871 1.113,-1 0.263,-0.061 0.542,-0.017 0.812,-0.035 0.269,-0.01 0.572,-0.097 0.695,-0.317 0.083,-0.151 0.067,-0.334 0.043,-0.5 m -2.697,-43.709 c -0.221,0.273 -0.508,0.511 -0.834,0.678 -0.356,0.184 -0.783,0.228 -1.119,0.444 -0.408,0.263 -0.499,0.723 -0.651,1.125 -0.039,0.101 -0.072,0.224 0.007,0.304 0.041,0.04 0.103,0.058 0.161,0.073 0.475,0.126 2.47,0.874 2.822,0.32 0.132,-0.202 -0.028,-0.369 -0.16,-0.522 -0.235,-0.272 -0.258,-0.514 0.191,-0.586 0.298,-0.047 0.693,0.009 0.958,0.143 0.088,0.044 0.182,0.103 0.209,0.192 -0.14,-0.984 -0.311,-1.905 0.682,-2.548 0.355,-0.231 0.774,-0.505 0.775,-0.941 0.004,-1.016 0.859,-1.263 0.788,-1.441 -0.161,-0.401 -0.937,-0.222 -1.273,-0.195 -0.877,0.073 -1.644,0.232 -2.156,0.932 -0.023,0.031 -0.047,0.064 -0.051,0.102 -0.004,0.034 0.007,0.067 0.019,0.1 0.215,0.614 0.056,1.294 -0.368,1.82 m 6.813,-0.702 c 0.248,0.103 0.545,-0.045 0.698,-0.247 0.154,-0.202 0.215,-0.448 0.336,-0.67 0.55,-0.985 2.018,-1.108 3.195,-1.439 0.995,-0.276 1.924,-0.216 2.501,-0.995 0.517,-0.694 0.603,-0.762 1.071,-1.486 0.418,-0.636 0.765,-0.942 2.765,-1.329 -2.278,0 -2.269,-1.994 -3.236,-0.318 -0.865,1.499 -1.705,0.723 -3.135,1.808 -0.516,0.389 -1.011,0.808 -1.577,1.133 -1.276,0.729 -2.821,0.951 -4.316,1.163 -0.012,0.355 1.051,0.405 1.293,0.686 0.588,0.685 0.405,1.694 0.405,1.694 m 11.853,6.239 c -0.032,0.13 -0.058,0.277 0.027,0.385 0.145,0.183 0.463,0.104 0.674,-0.015 0.616,-0.35 1.087,-0.902 1.305,-1.529 0.031,-0.089 0.057,-0.184 0.039,-0.276 -0.058,-0.299 -0.49,-0.37 -0.766,-0.546 -0.688,-0.441 -0.287,-1.442 -0.6,-2.15 -0.214,-0.487 -0.773,-0.829 -0.866,-1.346 -0.104,-0.573 0.404,-1.073 0.897,-1.451 0.008,-0.006 0.015,-0.011 0.023,-0.017 0.202,-0.153 0.429,-0.378 0.322,-0.596 -0.164,-0.334 -1.023,-0.516 -1.371,-0.56 -0.941,-0.118 -0.521,0.372 -1.03,0.93 -0.286,0.313 -1.524,0.652 -1.879,0.404 1.743,1.761 -4.67,3.155 -5.785,3.317 -0.623,0.091 -0.778,0.527 -0.779,1.041 0,0.459 -0.093,0.934 -0.724,0.812 -0.59,-0.113 -1.675,-0.193 -1.669,-0.933 10e-4,-0.183 0.086,-0.345 0.107,-0.522 0.013,-0.107 -0.028,-0.249 -0.169,-0.128 -0.188,0.161 -0.237,0.374 -0.313,0.587 -0.423,1.188 -1.303,2.238 -2.452,2.942 -0.555,0.336 -1.214,0.743 -0.909,1.444 0.493,1.131 2.667,1.034 2.822,1.124 0.831,0.482 2.15,-0.044 2.211,-0.955 0.077,-1.15 1.453,-1.052 2.116,-1.855 0.49,-0.593 0.641,-1.33 1.106,-1.936 0.455,-0.593 1.054,-1.083 1.737,-1.455 1.06,-0.577 2.504,-1.26 3.808,-0.92 1.145,0.299 2.385,1.098 2.456,2.259 0.04,0.658 -0.179,1.302 -0.338,1.945 m -28.989,17.574 c 1.092,0.996 0.024,1.178 0.047,1.53 0.101,-0.012 0.201,-0.034 0.301,-0.066 0.479,-0.153 0.823,-0.225 1.529,-0.335 0.645,-0.101 1.246,0.416 1.855,0.593 0.691,0.201 1.38,1.031 1.649,1.379 0.27,0.348 0.971,0.557 1.423,0.305 0.473,-0.263 0.351,-0.775 0.213,-1.181 -0.295,-0.887 -1.139,-1.121 -1.096,-2.548 0.015,-0.515 0.771,-0.737 0.62,-0.987 -0.271,-0.443 -0.673,-0.037 -1.345,-0.136 -0.803,-0.121 -0.56,0.145 -1.76,-0.161 -0.422,-0.108 -1.822,-0.651 -2.16,-0.833 -0.372,-0.201 -0.864,-0.597 -1.375,-0.639 -1.426,-0.114 -1.726,0.573 -1.735,0.707 3.35,0.108 1.425,1.999 1.834,2.372 m -13.215,0.857 c 0.081,-0.017 0.11,-0.105 0.127,-0.178 0.123,-0.518 0.41,-1.003 0.831,-1.373 0.22,-0.193 0.475,-0.354 0.754,-0.471 0.234,-0.097 0.634,-0.115 0.783,-0.323 0.431,-0.602 -0.949,-0.889 -0.844,-1.433 0.096,-0.495 0.97,-0.468 1.362,-0.359 0.97,0.271 1.742,0.917 2.229,1.71 0.639,1.04 0.686,2.33 1.467,3.298 0.097,0.12 0.94,0.438 0.661,-0.014 -0.092,-0.149 -0.186,-1.292 -0.203,-1.45 -0.082,-0.691 0.285,-1.414 0.927,-1.812 0.185,-0.113 0.376,-0.213 0.415,-0.429 0.089,-0.481 -0.097,-1.166 -0.47,-1.522 -0.296,-0.281 -0.704,-0.372 -1.103,-0.231 -0.367,0.129 -0.745,0.429 -1.165,0.333 -0.377,-0.086 -0.539,-0.413 -0.74,-0.678 -0.478,-0.63 -1.56,-0.87 -2.31,-0.503 -0.165,0.081 -0.314,0.191 -0.437,0.333 -0.205,0.236 -0.423,0.792 -0.84,0.684 -0.278,-0.073 -0.495,-0.462 -0.492,-0.707 0.008,-0.637 -0.098,-0.117 -0.455,0.063 -0.631,0.318 -1.441,0.005 -1.902,-0.427 -0.482,-0.452 -0.701,-1.073 -1.129,-1.561 -0.423,-0.483 -0.991,-0.894 -1.638,-1.103 -0.389,-0.126 -0.827,-0.179 -1.232,-0.084 -0.249,0.058 -0.64,0.172 -0.463,0.414 0.212,0.29 0.594,0.392 0.845,0.642 0.312,0.312 0.303,0.79 0.39,1.181 0.128,0.579 0.687,1.018 0.754,1.592 0.087,0.755 -1.037,1.37 -1.677,1.652 -0.424,0.187 -0.886,0.364 -1.001,0.823 0.055,-0.218 0.573,-0.022 0.706,0.01 0.473,0.115 0.899,-0.048 1.358,-0.138 1.141,-0.223 2.525,-0.19 3.333,0.677 0.373,0.401 0.599,0.89 0.971,1.291 0.048,0.052 0.114,0.108 0.188,0.093 m 1.193,14.186 c 0.407,0.365 1.007,0.518 1.578,0.523 0.49,0 0.979,-0.094 1.419,-0.281 0.484,-0.202 1.157,-0.071 1.684,-0.017 l -0.187,-0.417 c -0.153,-0.345 0.039,-0.728 0.417,-0.874 0.308,-0.118 0.205,-0.41 0.065,-0.757 -0.209,-0.517 -0.852,-0.808 -1.462,-0.823 -0.308,-0.01 -0.638,0.034 -0.913,-0.099 -0.556,-0.266 -0.467,-0.985 -0.682,-1.513 -0.297,-0.748 -1.21,-1.148 -1.847,-1.675 -0.198,-0.167 -0.352,-0.453 -0.6,-0.562 -0.099,-0.039 -0.176,-0.039 -0.242,-0.009 -0.668,0.3 -0.517,1.252 -0.425,1.787 0.033,0.194 0.065,0.389 0.095,0.583 0.113,0.729 0.743,1.151 0.852,1.882 0.102,0.69 -0.325,1.734 0.248,2.252 M -6.282,110.059 c -0.907,0.479 -1.985,0.789 -2.606,1.548 -0.468,0.577 -0.599,1.316 -0.709,2.02 -0.078,0.478 -0.155,0.956 -0.226,1.435 0.627,-1.331 2.1,-2.139 3.206,-3.209 1.693,-1.651 3.596,-1.626 5.481,-2.005 -0.571,-0.454 -1.363,-0.582 -2.089,-0.794 -0.682,-0.197 -1.402,-0.561 -1.627,-1.153 0.242,0.848 -0.567,1.705 -1.43,2.158 m -6.343,-11.526 c -0.413,1.103 -0.715,2.256 -0.744,3.424 -0.006,0.209 0,0.419 0.01,0.635 0.002,0.023 0.027,0.287 0.078,0.345 0.094,-0.044 0.8,-0.9 2.27,-1.378 0.811,-0.264 2.629,-0.121 3.52,-0.062 0.419,-0.114 1.057,-0.631 2.8,-0.777 0.337,-0.028 0.789,-0.02 1.225,0.022 -0.072,-1.455 -0.283,-3.217 -0.45,-3.959 -0.524,-2.304 -1.004,-5.402 -3.492,-6.021 -0.013,0.005 -0.023,0.009 -0.036,0.014 -0.07,0.028 -0.618,0.454 -0.739,0.571 -0.542,0.525 -0.997,1.106 -1.466,1.703 -0.491,0.623 -0.88,1.304 -1.271,1.981 -0.654,1.13 -1.251,2.293 -1.705,3.502 m -19.387,51.214 c -0.307,-0.299 -0.723,-0.498 -1.147,-0.624 -0.77,-0.228 -1.597,-0.255 -2.406,-0.217 -0.546,0.026 -1.098,0.082 -1.614,0.261 -0.132,0.046 -0.265,0.102 -0.363,0.195 -0.24,0.227 -0.17,0.654 0.132,0.809 0.174,0.089 0.388,0.09 0.583,0.048 0.194,-0.042 0.374,-0.124 0.557,-0.196 0.447,-0.175 0.927,-0.295 1.413,-0.293 1.011,0.003 2.247,0.573 2.528,1.51 0.176,0.586 -0.061,1.227 0.105,1.814 0.329,1.177 1.649,1.305 2.617,1.842 0.269,0.148 0.483,0.365 0.731,0.538 0.72,0.502 2.444,0.815 2.716,-0.321 0.11,-0.458 -0.187,-0.902 -0.467,-1.296 -0.314,-0.44 -0.657,-0.885 -1.119,-1.211 -0.245,-0.172 -0.568,-0.347 -0.882,-0.382 -0.404,-0.043 -0.738,0.016 -1.103,-0.196 -0.231,-0.133 -0.428,-0.307 -0.653,-0.449 -0.35,-0.221 -0.762,-0.373 -1.001,-0.71 -0.253,-0.356 -0.3,-0.804 -0.627,-1.122 m -0.899,-4.418 c -0.851,-0.107 -0.503,-0.266 -1.032,0.478 -0.53,0.743 -0.706,1.062 0,0.584 0.706,-0.478 2.378,0.686 2.529,0 0.118,-0.531 -0.647,-0.956 -1.497,-1.062 m -6.531,-25.157 c 0.149,0.538 0.368,0.325 0.943,0.489 0.432,0.123 0.476,0.704 0.679,1.079 0.038,0.07 0.146,0.055 0.164,-0.021 0.089,-0.37 0.419,-0.54 0.743,-0.616 0.259,-0.061 0.533,-0.023 0.79,-0.085 0.139,-0.033 0.271,-0.08 0.398,-0.138 0.26,-0.117 0.496,-0.271 0.744,-0.407 0.433,-0.237 0.915,-0.396 1.428,-0.363 0.528,0.035 1.006,0.306 1.391,0.636 0.022,-0.483 -0.049,-0.976 -0.209,-1.439 -0.055,-0.163 -0.148,-0.329 -0.328,-0.403 -0.251,-0.105 -0.603,-0.012 -0.858,0.044 -0.3,0.067 -0.59,0.162 -0.878,0.262 -0.568,0.197 -1.137,0.421 -1.746,0.49 -0.401,0.046 -0.841,-0.152 -1.208,-0.271 -0.537,-0.175 -1.235,-0.234 -1.696,0.14 -0.193,0.156 -0.429,0.342 -0.357,0.603 m -2.49,29.895 c 0.116,-0.256 0.292,-0.473 0.517,-0.63 -0.22,-0.232 -0.341,-0.527 -0.324,-0.823 -0.022,-0.025 -0.05,-0.04 -0.072,-0.064 -0.324,-0.335 -0.571,-0.7 -0.742,-1.114 -0.071,-0.187 -0.11,-0.37 -0.143,-0.567 -0.011,-0.064 -0.038,-0.162 -0.055,-0.251 h -0.258 c -0.396,0.02 -0.787,0.064 -1.177,0.054 -0.946,-0.029 -1.869,-0.345 -2.381,-1.094 -0.434,-0.631 -0.473,-1.375 -0.456,-2.099 0.006,-0.197 -0.022,-0.606 -0.017,-0.769 -0.126,-0.029 -0.302,-0.054 -0.307,-0.054 -1.012,-0.217 -1.749,-0.857 -2.095,-1.73 -0.594,-1.508 1.436,-3.137 2.673,-3.999 0.193,-0.414 0.401,-0.818 0.291,-1.208 -0.109,-0.379 -0.412,-0.724 -0.791,-0.951 -0.589,-0.35 -0.99,-0.217 -1.644,-0.014 -0.814,0.251 -1.683,0.379 -2.486,-0.006 -0.049,-0.029 -0.093,-0.058 -0.137,-0.088 -0.104,-0.07 -0.762,0.072 -0.915,0.079 -0.309,0.014 -0.62,0.015 -0.929,-0.002 -1.117,-0.061 -2.208,-0.443 -3.008,-1.161 -0.305,-0.273 -0.541,-0.578 -0.73,-0.903 v 31.544 c 10.046,7.982 21.524,13.699 33.804,16.891 l -5.572,-20.795 c -0.438,-0.282 -0.922,-0.481 -1.239,-0.373 -0.946,0.322 -1.48,0.75 -1.505,1.363 -0.049,1.278 -1.994,1.428 -3.046,1.324 -1.636,-0.16 -2.019,-0.967 -2.443,-1.83 -0.161,-0.33 -0.252,-0.688 -0.296,-1.046 -0.121,-0.986 0.242,-1.977 0.099,-2.957 -0.126,-0.843 -0.781,-1.587 -1.33,-2.248 -1.249,-1.512 -4.127,-2.532 -3.286,-4.479 m -1.673,-33.27 c -0.642,0.023 -1.13,0.508 -1.568,0.925 -0.764,0.715 -1.646,1.336 -2.642,1.749 -1.001,0.414 -2.13,0.607 -3.215,0.455 -0.719,-0.096 -1.408,-0.341 -2.135,-0.391 -0.722,-0.05 -1.54,0.143 -1.907,0.71 -0.372,0.572 0.56,0.279 1.02,0.796 0.762,0.859 1.087,1.565 1.822,1.634 0.736,0.063 1.066,0.115 1.799,0.198 0.392,0.044 0.822,0.146 1.051,0.432 0.391,0.478 0.064,1.114 -0.088,1.61 -0.126,0.422 -0.139,0.943 0.238,1.218 0.301,0.22 0.615,0.226 0.965,0.107 1.277,-0.431 2.118,-0.628 3.461,-0.696 -1.264,-0.329 -1.207,-1.346 -1.629,-1.675 -0.338,-0.263 -1.157,-0.554 -1.223,-0.964 -0.152,-0.966 0.71,-1.98 1.762,-2.151 0.442,-0.072 0.898,-0.027 1.316,-0.207 0.419,-0.179 0.769,-0.472 1.129,-0.735 0.439,-0.32 0.884,-0.633 1.322,-0.954 0.513,-0.375 0.976,-0.931 0.838,-1.562 -0.774,0.222 -1.507,-0.521 -2.316,-0.499 M -29.238,105.6 c -0.462,-0.044 -0.94,-0.035 -1.358,0.143 -0.412,0.182 -0.742,0.566 -0.704,0.98 0.044,0.493 0.594,0.843 1.138,0.932 0.55,0.083 1.106,-0.025 1.655,-0.069 1.062,-0.084 2.139,0.084 3.102,0.483 0.676,0.281 1.297,0.67 1.996,0.897 0.428,0.138 0.874,0.211 1.325,0.246 h 0.016 c 0.165,0.015 0.33,0.02 0.495,0.02 0.302,0.02 0.599,0.044 0.89,0.103 0.869,0.172 1.711,0.577 2.178,1.257 0.291,0.419 0.704,1.025 1.188,0.788 0.45,-0.222 0.203,-0.896 0.528,-1.257 0.143,-0.157 0.368,-0.226 0.582,-0.285 0.655,-0.188 1.309,-0.37 1.958,-0.557 -1.397,0.291 -2.975,-0.473 -3.475,-1.68 -0.066,-0.158 -0.121,-0.326 -0.269,-0.429 -0.16,-0.113 -0.385,-0.109 -0.589,-0.104 -0.836,0.025 -1.914,-0.231 -1.968,-0.976 -1.089,0.952 -2.832,0.967 -4.305,0.621 -1.474,-0.345 -2.871,-0.975 -4.383,-1.113 m -5.995,-73.601 c -1.539,0.294 -2.515,0.984 -3.602,1.754 -1.515,1.072 -3.232,2.288 -6.526,2.288 -3.293,0 -5.011,-1.216 -6.526,-2.288 -1.443,-1.021 -2.688,-1.904 -5.315,-1.904 -2.626,0 -3.872,0.883 -5.314,1.904 -1.515,1.072 -3.232,2.288 -6.526,2.288 -1.454,0 -2.601,-0.237 -3.558,-0.594 -2.033,2.596 -3.91,5.288 -5.638,8.062 1.695,0.429 2.84,1.239 3.888,1.98 1.442,1.021 2.689,1.903 5.317,1.903 0.688,0 1.279,-0.061 1.806,-0.169 v 0 c 0.184,-0.038 0.359,-0.081 0.527,-0.13 0.003,0 0.007,-0.001 0.009,-0.002 1.19,-0.343 2.042,-0.946 2.974,-1.604 0.505,-0.357 1.034,-0.729 1.635,-1.067 1.202,-0.678 2.696,-1.219 4.892,-1.219 2.289,0 3.816,0.587 5.044,1.305 0.539,0.315 1.02,0.654 1.483,0.981 0.32,0.228 0.633,0.449 0.954,0.655 0.005,0.004 0.01,0.008 0.016,0.011 0.323,0.207 0.655,0.398 1.012,0.564 10e-4,0.001 10e-4,0.001 10e-4,0.002 0.869,0.407 1.893,0.673 3.332,0.673 2.628,0 3.874,-0.882 5.316,-1.903 1.516,-1.073 3.233,-2.288 6.527,-2.288 3.295,0 5.012,1.215 6.527,2.288 1.443,1.021 2.689,1.903 5.316,1.903 2.627,0 3.873,-0.882 5.315,-1.903 0.817,-0.578 1.695,-1.196 2.844,-1.645 -7.188,-3.191 -14.46,-7.092 -21.73,-11.845 m 82.991,14.02 c 0.171,-0.285 0.263,-0.62 0.263,-0.961 v -8.184 l -6.971,1.449 -0.337,0.08 v 8.349 c 0,0.371 0.107,0.732 0.307,1.031 l 2.677,5.846 c 0.149,0.224 0.456,0.215 0.596,-0.016 z m -3.069,13.796 c -0.176,0 -0.325,0.143 -0.325,0.325 0,0.176 0.149,0.325 0.325,0.325 1.553,0 2.813,-1.481 2.813,-3.294 0,-1.236 -0.578,-2.353 -1.507,-2.925 -0.052,-0.032 -0.111,-0.052 -0.169,-0.052 -0.004,0 -0.009,0.002 -0.013,0.002 l -0.261,0.496 c 0.026,0.042 0.059,0.08 0.105,0.106 0.734,0.455 1.196,1.365 1.196,2.373 0,1.455 -0.969,2.644 -2.164,2.644 M 73.904,37.154 55.384,35.669 c -0.01,0.003 -0.018,0.008 -0.028,0.01 l -0.777,0.18 -4.772,0.644 v 9.624 c 0,0.342 -0.091,0.676 -0.263,0.961 l -3.199,6.094 0.053,-0.073 c 1.202,0.741 2.027,2.242 2.027,3.977 0,2.469 -1.67,4.464 -3.737,4.464 -2.059,0 -3.736,-1.995 -3.736,-4.464 0,-1.437 0.569,-2.706 1.451,-3.524 l -2.499,-5.341 c -0.214,-0.304 -0.33,-0.678 -0.33,-1.063 v -8.487 l -0.011,0.003 -2.392,0.559 c -0.421,0.094 -0.724,0.473 -0.724,0.904 v 13.621 l 0.057,0.076 3.386,4.934 c 0.104,0.152 0.161,0.337 0.161,0.526 v 14.109 c 0,0.379 0.095,0.749 0.279,1.08 l 5.966,14.169 c 0.355,0.645 0.782,0.659 1.127,0.011 l 4.128,-14.216 c 0.093,-0.405 0.123,-0.743 0.123,-1.107 l 0.007,-14.404 c 0,-0.237 -0.004,-0.464 0.022,-0.522 l 2.842,-5.487 c 0.122,-0.334 0.366,-0.397 0.627,-0.397 L 83.97,54.245 C 81.26,48.231 77.894,42.503 73.904,37.154 m -8.823,119.965 c 17.384,-17.384 26.957,-40.497 26.957,-65.081 0,-10.021 -1.592,-19.797 -4.653,-29.041 -0.078,10e-4 -0.152,-0.004 -0.195,-0.004 L 58.672,61.07 c -0.516,0 -0.928,0.417 -0.928,0.928 v 11.908 c 0,0.374 -0.095,0.739 -0.27,1.066 l -9.2,17.735 c -0.033,0.057 -0.066,0.114 -0.113,0.161 -0.047,0.056 -0.1,0.104 -0.156,0.146 v 5.003 l 2.656,-0.128 c 0.303,0 0.55,0.243 0.55,0.543 l 0.024,0.688 c 0,0.3 -0.246,0.543 -0.55,0.543 l -2.68,0.009 v 4.024 c 0,0.41 -0.222,0.742 -0.495,0.742 h -0.243 c -0.274,0 -0.495,-0.332 -0.495,-0.742 v -4.049 l -2.165,-0.046 c -0.304,0 -0.55,-0.243 -0.55,-0.542 v -0.267 c 0,-0.3 0.246,-0.543 0.55,-0.543 l 2.165,-0.148 V 92.884 C 46.73,92.837 46.687,92.789 46.655,92.731 L 38.422,74.999 C 38.228,74.658 38.123,74.275 38.123,73.882 V 59.891 c 0,-0.19 -0.057,-0.37 -0.166,-0.526 L 36.02,56.539 c -7.829,-0.722 -16.114,-2.021 -24.689,-4.164 -0.639,3.597 -0.892,6.12 -1.405,9.759 -0.644,4.57 -0.987,9.212 -1.055,13.822 -0.05,3.428 0.657,6.58 3.031,9.271 4.505,5.104 11.061,10.096 13.617,17.124 0.635,0.188 1.255,0.441 1.837,0.663 -0.148,-0.057 0.194,-0.885 0.251,-0.984 0.867,-1.518 3.24,-1.657 4.736,-0.887 0.356,0.183 0.678,0.422 0.936,0.71 0.269,0.3 1.242,2.647 1.39,2.521 1.267,-1.072 3.115,-0.437 4.763,-0.207 1.781,0.249 2.767,1.362 3.942,2.467 0.128,0.12 1.509,-1.057 2.803,0.123 0.832,0.757 2.657,1.485 3.986,1.275 1.092,-0.173 3.346,-1.91 6.211,0.177 1.216,0.885 1.153,2.477 0.807,3.129 -0.536,1.013 2.57,2.33 3.311,2.538 2.058,0.577 2.218,0.482 4,2.693 0.627,0.778 1.123,2.897 -0.902,3.257 -0.664,0.119 -0.353,0.765 -0.504,0.814 1.045,0.414 1.921,0.668 2.504,1.604 0.605,0.971 -1.125,1.722 -1.048,2.811 0.045,0.626 -0.021,1.291 -0.313,1.848 -0.303,0.579 1.223,2.389 1.476,2.936 0.492,1.063 0.478,2.221 -0.408,3.124 -0.588,0.599 -1.451,0.917 -2.329,0.938 -0.578,0.015 -1.133,-0.099 -1.65,-0.306 0.101,0.04 -1.02,1.365 -1.15,1.515 -0.582,0.672 -1.296,1.251 -2.208,1.526 -1.446,0.437 -2.719,-0.279 -3.748,-1.176 -1.21,-1.056 -2.198,-2.018 -3.863,-2.417 -0.798,-0.191 -2.747,-0.619 -2.742,0.622 10e-4,0.699 0.25,1.701 1.096,1.931 0.729,0.197 1.502,-0.247 2.252,-0.056 0.361,0.092 0.665,0.32 0.887,0.587 0.232,0.278 0.397,0.605 0.523,0.932 0.297,0.77 0.503,1.663 0.08,2.429 -0.048,0.087 -0.104,0.172 -0.166,0.252 -0.697,0.906 -1.906,1.094 -3.017,0.836 0.688,0.161 0.801,1.751 0.812,2.263 0.019,0.883 -0.398,1.801 -1.143,2.383 -0.672,0.525 -1.341,0.741 -1.608,1.59 -0.347,1.103 -0.988,2.261 -2.242,2.704 -0.093,0.033 -0.197,0.07 -0.236,0.152 -0.028,0.061 -0.012,0.13 -0.004,0.195 0.027,0.208 -0.033,0.43 -0.192,0.582 -0.541,0.517 -1.917,-0.203 -2.591,-0.168 -0.072,0.004 -0.214,0.014 -0.357,0.019 0.182,0.133 0.368,0.469 0.251,0.894 -0.079,0.284 -0.481,0.833 -0.922,1.107 0.967,0.049 1.946,0.222 2.711,0.798 0.53,0.399 0.441,0.952 0.228,1.478 -0.117,0.291 -0.265,0.571 -0.378,0.864 -0.109,0.279 -0.112,0.587 -0.214,0.858 -0.215,0.568 -0.889,1.072 -1.352,1.474 -0.769,0.668 -1.385,1.478 -2.209,2.087 -0.252,0.187 -0.522,0.34 -0.791,0.493 -0.048,0.027 0.135,0.832 0.142,0.91 0.031,0.347 0.018,0.696 -0.038,1.04 -0.139,0.866 -0.535,1.764 -1.264,2.362 -1.023,0.839 -2.53,1.151 -3.833,0.699 -0.11,-0.034 -0.203,-0.083 -0.296,-0.138 -0.072,0.124 -0.149,0.237 -0.248,0.335 -0.33,0.749 -0.83,1.425 -1.561,1.784 -0.143,0.074 -0.292,0.124 -0.439,0.158 0.236,0.076 -0.119,1.26 -0.156,1.416 -0.158,0.668 -0.389,1.253 -0.79,1.843 -1.962,2.885 -6.106,3.852 -9.647,3.586 -1.43,-0.107 -3.011,-0.495 -4.19,-1.258 -1.147,-0.742 -1.853,-1.926 -2.379,-3.078 -0.099,-0.218 -0.176,-0.474 -0.264,-0.725 -0.346,-0.192 -0.665,-0.483 -0.934,-0.892 0.368,0.562 -3.817,2.065 -4.314,2.174 -2.493,0.545 -5.873,0.691 -6.521,-1.461 -0.21,-0.698 0.148,-3.878 -2.131,-1.95 -0.374,0.434 -0.803,0.798 -1.446,0.966 -0.599,0.158 -1.154,-0.113 -1.49,-0.542 -0.082,-0.108 -0.165,-0.222 -0.236,-0.335 -0.193,0.128 -0.391,0.251 -0.594,0.365 -1.435,0.788 -3.228,1.33 -4.866,1.626 -1.782,0.315 -3.69,0.212 -5.191,-0.794 -0.61,-0.408 -1.05,-0.916 -1.374,-1.517 -0.017,-0.031 -2.06,0.212 -2.274,0.218 -0.826,0.021 -1.66,-0.025 -2.47,-0.181 -1.405,-0.271 -2.657,-1.026 -3.618,-1.974 -0.487,-0.481 -0.954,-1.026 -1.245,-1.627 -0.115,-0.237 -0.305,-1.248 -0.677,-1.248 -0.516,0 -1.033,-0.202 -1.396,-0.576 -0.034,-0.035 -0.122,-0.018 -0.22,0.01 l 5.358,19.996 c 6.985,1.67 14.214,2.535 21.577,2.535 24.584,0 47.697,-9.573 65.081,-26.957 M 0,190.118 c -54.168,0 -98.079,-43.912 -98.079,-98.08 0,-54.167 43.911,-98.079 98.079,-98.079 54.168,0 98.079,43.912 98.079,98.079 0,54.168 -43.911,98.08 -98.079,98.08"
             style="fill:#ffffff;fill-opacity:1;fill-rule:nonzero;stroke:none"
             id="path56" />
        </g>
        <g
           id="g58"
           transform="translate(168.4056,81.8703)">
          <path
             d="m 0,0 c -7.863,0.669 -14.417,-2.299 -21.914,-9.93 -0.456,-0.465 -0.458,-1.219 -0.004,-1.687 0.228,-0.234 0.527,-0.351 0.826,-0.351 0.297,0 0.594,0.116 0.822,0.347 7.054,7.181 12.872,9.858 20.076,9.244 0.636,-0.05 1.204,0.433 1.258,1.09 C 1.118,-0.631 0.641,-0.055 0,0"
             style="fill:#ffffff;fill-opacity:1;fill-rule:nonzero;stroke:none"
             id="path60" />
        </g>
        <g
           id="g62"
           transform="translate(211.1539,103.082)">
          <path
             d="m 0,0 c -1.874,-2.122 -2.041,-2.165 -2.041,-4.657 v -5.513 l 4.082,0.509 v 5.513 C 2.041,-1.656 1.547,-1.367 0,0"
             style="fill:#ffffff;fill-opacity:1;fill-rule:nonzero;stroke:none"
             id="path64" />
        </g>
        <g
           id="g66"
           transform="translate(221.9979,104.0664)">
          <path
             d="m 0,0 c -1.874,-2.122 -2.041,-2.165 -2.041,-4.657 v -5.513 l 4.082,0.509 v 5.513 C 2.041,-1.656 1.548,-1.367 0,0"
             style="fill:#ffffff;fill-opacity:1;fill-rule:nonzero;stroke:none"
             id="path68" />
        </g>
      </g>
    </g>
  </g>
</svg>
