<svg width="131" height="24" viewBox="0 0 131 24" fill="none" xmlns="http://www.w3.org/2000/svg">
<path d="M49.5151 23.5446V0.730964C52.3012 -0.00345626 54.3471 0.398726 56.0841 3.12657C58.3922 6.75787 61.26 10.0336 63.8946 13.4551C64.1219 13.7465 64.4366 13.968 65.1244 14.6092C65.1244 12.2136 65.1244 10.2609 65.1244 8.31414C65.1244 7.15422 65.241 5.98265 65.1011 4.83439C64.7281 1.73933 66.4126 -0.39981 70.1196 0.736792V23.259C69.426 23.9468 68.5051 23.498 67.6832 23.6379C66.2494 23.8768 65.3809 23.1599 64.559 22.0583C61.3765 17.7567 58.1125 13.5134 54.5278 8.7921C54.5278 12.1553 54.5394 14.9414 54.522 17.7275C54.5161 18.5844 54.5278 19.4179 54.2655 20.2922C53.3912 23.1832 52.9599 23.5621 49.5034 23.5504L49.5151 23.5446Z" fill="#F8FBFD"/>
<path d="M98.2958 14.2127V18.9981C100.26 18.9981 102.166 18.9981 104.072 18.9981C105.331 18.9981 106.59 18.9806 107.849 18.9981C110.233 19.0448 110.449 19.2662 110.443 21.7143C110.443 22.268 110.629 22.8742 110.093 23.4979H93.423C92.8693 21.5161 92.6828 5.90098 93.1782 0.625977H110.32C110.472 2.17642 110.734 3.66857 109.3 5.1141H98.3483C98.121 6.69368 98.1618 8.07509 98.3075 9.61971H108.327C109.032 11.1177 108.636 12.5457 108.706 14.2127H98.3017H98.2958Z" fill="#F7FAFD"/>
<path d="M33.0199 0.561831C38.3882 0.282052 37.6479 -0.044357 39.5714 4.27473C42.2934 10.3716 44.8289 16.55 47.4402 22.6993C47.5101 22.8625 47.481 23.0666 47.5043 23.2997C42.9113 25.0775 42.1535 21.2014 40.6847 18.4968H30.6476C29.954 18.9048 30.0356 19.7966 29.715 20.4553C28.1179 23.766 27.7857 23.9758 23.5715 23.2706C26.7307 15.6641 29.8666 8.13335 33.0141 0.556002L33.0199 0.561831ZM35.5787 5.90677C34.0458 8.67542 33.1306 11.2575 32.4545 14.1136C34.6636 14.3992 36.7095 14.4575 38.9943 14.0728C37.8519 11.3508 36.7969 8.82114 35.5787 5.90677Z" fill="#F8FBFD"/>
<path d="M89.5527 2.99245C88.2062 5.84269 87.5243 6.1691 84.8081 5.30062C83.3392 4.83433 81.8995 4.29225 80.3141 4.47877C78.9793 4.63032 78.0409 5.41137 77.8894 6.52466C77.7087 7.86526 78.548 8.47728 79.6205 8.83866C80.9786 9.2933 82.3658 9.65468 83.7356 10.0627C84.843 10.3891 85.9155 10.7738 86.9297 11.3508C89.7916 12.9712 90.5669 14.6208 90.1239 18.3628C89.8674 20.5427 87.5476 23.0899 85.286 23.6028C80.3841 24.7103 76.0533 23.4513 72.1248 20.4553C73.8093 17.8324 74.3805 17.6109 77.0384 18.4502C78.6762 18.969 80.2267 19.7792 82.0394 19.6451C82.8263 19.5868 83.5549 19.4936 84.2485 19.0914C85.9447 18.118 85.968 16.5559 84.2951 15.5009C82.7156 14.51 80.897 14.2069 79.1367 13.8106C77.8835 13.525 76.7586 13.0004 75.7094 12.3534C73.5586 11.0186 72.6319 8.91444 72.8941 6.48968C73.2264 3.4296 75.1615 1.40703 78.0234 0.509408C82.191 -0.790398 85.9097 0.526894 89.541 2.99245H89.5527Z" fill="#F8FBFD"/>
<path d="M129.176 3.0041C127.766 5.78441 127.043 6.16911 124.572 5.3764C123.103 4.90427 121.698 4.36803 120.095 4.4438C118.743 4.50792 117.88 5.09662 117.507 6.32065C117.158 7.45725 117.688 8.28493 119.285 8.86198C120.894 9.44485 122.59 9.8004 124.228 10.325C126.484 11.0478 128.576 12.1377 129.614 14.3818C131.292 18.0131 128.465 22.8451 124.42 23.6495C119.676 24.5995 115.549 23.358 111.842 20.4087C113.112 18.0247 113.899 17.6808 116.26 18.3803C118.271 18.9748 120.212 19.9074 122.421 19.6218C123.115 19.5344 123.727 19.4353 124.263 18.934C125.446 17.8149 125.388 16.3985 124.024 15.5475C122.456 14.5683 120.649 14.1953 118.877 13.8222C118.108 13.659 117.391 13.4142 116.703 13.0995C113.34 11.5723 112.314 9.56143 112.809 5.64452C113.13 3.08571 115.59 1.03982 118.562 0.363691C122.555 -0.539762 125.848 0.800845 129.188 2.99828L129.176 3.0041Z" fill="#F9FBFD"/>
<path d="M13.8667 18.6018C12.8641 19.0856 12.118 18.9515 11.0689 18.7591V12.5632C10.1946 11.7822 9.57088 11.8521 8.63828 12.2893V18.5143C7.65323 19.1438 6.88966 18.9107 5.99204 18.8407C5.36837 16.7366 6.00953 14.4983 5.60151 12.4175C4.9895 11.7588 4.34834 11.8929 3.6314 12.1494C3.54397 12.3709 3.35163 12.6273 3.3458 12.8838C3.31082 14.3293 3.29334 15.7807 3.31665 17.232C3.33414 18.4677 2.73378 18.9748 1.53306 18.934C0.425604 18.899 0.00593514 18.2987 0.0117639 17.2612C0.0234213 15.1337 -0.034866 13.0062 0.0350788 10.8845C0.0817086 9.47398 0.722869 8.93773 2.09845 9.29329C2.9611 9.52061 3.6314 9.69547 4.51737 9.28163C5.16436 8.97853 6.05033 8.99602 6.76143 9.43318C7.58911 9.94028 8.35267 9.77124 9.24447 9.50895C12.3104 8.61715 13.7851 9.76541 13.855 13.0004C13.8841 14.4517 13.8608 15.8972 13.8608 17.3486C13.8608 17.7333 13.8608 18.118 13.8608 18.6134L13.8667 18.6018Z" fill="white"/>
<path d="M15.7145 9.47401C16.682 9.01354 17.4864 9.28166 18.4132 9.27V18.5901C17.6438 19.1905 16.8161 18.9573 15.7902 18.7825C15.5046 15.6874 15.6387 12.5865 15.7145 9.47401Z" fill="white"/>
</svg>
