<svg width="174" height="38" viewBox="0 0 174 38" fill="none" xmlns="http://www.w3.org/2000/svg">
<path d="M76.7382 22.6862C75.4524 23.9416 74.0704 24.5896 72.4606 24.6604C69.3322 24.8022 66.9631 23.1721 65.981 20.0437C65.1508 17.4012 65.1812 14.703 66.1329 12.0909C67.1807 9.21559 69.4284 7.76273 72.3645 7.28688C74.9614 6.86166 77.5229 7.14514 80.0692 7.72224C80.7475 7.8741 81.031 8.18796 81.031 8.89667C81.0107 13.8374 81.031 18.7832 81.0107 23.7239C81.0057 24.6655 80.8791 25.6121 80.6311 26.5284C79.8565 29.4189 77.8266 31.1046 74.6273 31.5602C72.2328 31.9045 69.8688 31.6919 67.5098 31.2312C66.8264 31.0945 66.553 30.7705 66.5632 30.0568C66.6036 27.394 66.391 27.7028 68.8057 28.1584C70.5421 28.4875 72.2784 28.6545 74.0249 28.2141C75.665 27.799 76.6066 26.7309 76.7332 25.0654C76.7888 24.3516 76.7433 23.6328 76.7433 22.6862H76.7382ZM76.7737 15.4573C76.7737 14.1057 76.7382 12.7541 76.7888 11.4075C76.8141 10.7343 76.5357 10.4558 75.9232 10.4153C74.9462 10.3495 73.9742 10.2685 73.0023 10.4862C71.3773 10.8406 70.375 11.8226 69.9599 13.4223C69.5853 14.86 69.56 16.3027 69.7827 17.7707C70.0004 19.1882 70.4965 20.3879 71.9392 20.9346C73.4781 21.5168 74.931 21.2991 76.2826 20.3727C76.6471 20.1247 76.7838 19.7906 76.7787 19.3451C76.7585 18.0542 76.7686 16.7583 76.7686 15.4674L76.7737 15.4573Z" fill="white"/>
<path d="M41.2065 1.24251C41.6672 1.24251 42.1278 1.24251 42.5885 1.24251C44.4969 1.24251 44.1477 1.13115 44.6893 2.71562C47.0129 9.52937 49.301 16.3583 51.5992 23.1822C52.0093 24.3921 51.9182 24.5389 50.6273 24.5034C49.7161 24.4781 48.6429 24.878 47.9443 24.3161C47.2913 23.7896 47.2913 22.7063 46.9926 21.8711C46.618 20.8181 46.2637 19.7551 45.9498 18.6819C45.7726 18.0744 45.479 17.7859 44.7956 17.7909C42.3455 17.8213 39.8954 17.8213 37.4453 17.7909C36.8024 17.7859 36.529 18.0542 36.3518 18.6312C35.8304 20.3321 35.2381 22.0077 34.7117 23.7087C34.5294 24.2908 34.2459 24.5642 33.603 24.5237C32.8842 24.4781 32.1654 24.5186 31.4415 24.5135C30.5303 24.5034 30.3582 24.2807 30.6416 23.4201C31.4263 21.051 32.2211 18.6819 33.0209 16.3178C34.6155 11.5897 36.2303 6.86158 37.8047 2.1284C38.0224 1.47031 38.3514 1.19189 39.0449 1.23745C39.7638 1.28301 40.4826 1.24758 41.2065 1.24758V1.24251ZM41.1002 14.465C41.9355 14.465 42.7707 14.4802 43.606 14.46C44.2337 14.4448 44.5071 14.1714 44.2489 13.5133C44.0312 12.9514 43.8692 12.3693 43.6819 11.7972C43.0137 9.75211 42.3354 7.71203 41.6722 5.6669C41.576 5.37835 41.4697 5.0898 41.1306 5.08474C40.7863 5.07968 40.6699 5.37329 40.5788 5.65677C39.7334 8.24357 38.8779 10.8304 38.0426 13.4222C37.7895 14.217 37.992 14.4498 38.8526 14.46C39.6018 14.4701 40.351 14.46 41.1002 14.46V14.465Z" fill="white"/>
<path d="M3.77642 11.9948C5.33558 10.5065 7.1023 10.0762 9.09681 10.5318C9.84602 10.7039 10.5142 11.0583 10.9698 11.6809C11.2584 12.0758 11.4204 12.0252 11.7444 11.7366C12.8479 10.7495 14.1641 10.3394 15.6321 10.3647C18.0215 10.4002 19.6617 11.8125 19.9958 14.1766C20.3046 16.3483 20.0869 18.5352 20.1375 20.717C20.1628 21.7801 20.1173 22.8431 20.1527 23.9062C20.1679 24.4073 20.0008 24.544 19.5149 24.5238C18.5632 24.4883 17.6115 24.4782 16.6648 24.5238C16.1232 24.5491 15.9966 24.382 16.0017 23.8556C16.0321 21.2688 16.0219 18.682 16.0118 16.1002C16.0067 14.1817 14.7867 13.397 13.0251 14.1563C12.4126 14.4196 12.0987 14.7992 12.1088 15.5282C12.1493 18.2871 12.1088 21.046 12.1392 23.8049C12.1443 24.3567 12.0127 24.5592 11.4254 24.5238C10.5345 24.4732 9.63847 24.4782 8.74752 24.5238C8.22105 24.5491 8.06412 24.3972 8.06918 23.8556C8.09955 21.2688 8.08437 18.682 8.08437 16.1002C8.08437 15.3105 8.0793 14.4854 7.22885 14.0956C6.37334 13.7007 5.53807 13.9134 4.77367 14.4145C4.31301 14.7132 4.09027 15.108 4.09534 15.7054C4.12571 18.4036 4.09534 21.1068 4.12065 23.81C4.12065 24.3415 4.02953 24.5693 3.42712 24.5339C2.48049 24.4782 1.52373 24.4934 0.577093 24.5288C0.116431 24.539 0 24.377 0 23.9366C0.0151867 19.6843 0.0151867 15.427 0 11.1747C0 10.6735 0.167053 10.5115 0.647964 10.5571C1.01751 10.5925 1.39717 10.5622 1.77178 10.5622C2.79435 10.5622 3.46256 11.038 3.77642 11.9897V11.9948Z" fill="white"/>
<path d="M101.989 15.9228C101.989 13.4221 102.014 10.9214 101.973 8.42569C101.958 7.6208 102.237 7.312 103.021 7.41324C103.305 7.44868 103.598 7.41831 103.887 7.41831C105.294 7.41831 105.304 7.41831 105.644 8.73955C105.806 9.36726 106.054 9.00278 106.276 8.81042C107.476 7.77772 108.888 7.24113 110.443 7.11964C114.275 6.8159 116.699 8.9471 116.816 12.8804C116.922 16.4696 116.841 20.0637 116.851 23.6529C116.851 24.2755 116.578 24.5387 115.96 24.5236C115.181 24.5033 114.401 24.4831 113.627 24.5286C112.903 24.5691 112.675 24.2806 112.685 23.5719C112.716 20.4687 112.7 17.3656 112.695 14.2624C112.695 13.9182 112.645 13.579 112.624 13.2348C112.483 10.8201 110.569 10.5316 109.01 10.7847C108.468 10.8707 107.962 11.0783 107.471 11.3314C106.55 11.8073 106.089 12.4451 106.114 13.579C106.195 16.8796 106.119 20.1852 106.16 23.4909C106.17 24.2856 105.922 24.5894 105.122 24.5286C104.408 24.4729 103.679 24.478 102.961 24.5286C102.181 24.5792 101.968 24.2451 101.979 23.5111C102.009 20.9851 101.989 18.4539 101.989 15.9279V15.9228Z" fill="white"/>
<path d="M169.513 22.5899C168.273 24.0023 166.912 24.5692 165.352 24.797C162.755 25.1767 160.153 23.8403 159.419 21.6939C158.427 18.7882 159.779 16.1811 162.796 15.2142C164.315 14.7283 165.899 14.622 167.473 14.5207C169.225 14.4093 169.478 14.0702 168.982 12.3541C168.628 11.129 167.711 10.4811 166.162 10.3748C164.542 10.2684 162.938 10.3798 161.368 10.7899C160.639 10.9822 160.417 10.7139 160.432 10.0356C160.488 7.40323 160.012 7.83352 162.624 7.35767C164.755 6.96788 166.917 6.93751 169.053 7.44879C171.402 8.0107 172.789 9.64073 173.098 12.0301C173.325 13.7816 173.214 15.5281 173.234 17.2796C173.26 19.3754 173.224 21.4762 173.249 23.572C173.254 24.2655 173.006 24.6097 172.283 24.5237C172.227 24.5186 172.166 24.5237 172.11 24.5237C170.88 24.4984 169.321 25.0248 169.513 22.6V22.5899ZM169.119 19.0362C169.119 18.3832 169.119 17.9276 169.119 17.4669C169.119 17.1328 168.962 16.8898 168.607 16.9151C167.154 17.0113 165.671 16.9405 164.325 17.6441C163.545 18.0541 163.257 18.773 163.267 19.5728C163.277 20.403 163.575 21.213 164.411 21.537C165.671 22.028 166.917 21.8508 168.147 21.2535C169.255 20.7169 169.169 19.7955 169.119 19.0362Z" fill="white"/>
<path d="M141.388 15.8722C141.388 13.3411 141.408 10.8151 141.373 8.28397C141.363 7.60057 141.575 7.32721 142.264 7.4082C142.603 7.4487 142.952 7.41326 143.301 7.41326C144.628 7.41326 144.638 7.41327 144.947 8.65857C145.109 9.31666 145.341 9.06861 145.67 8.78513C148.141 6.67418 151.948 6.497 154.281 8.38015C155.653 9.48878 156.068 11.0631 156.104 12.683C156.185 16.3582 156.124 20.0384 156.139 23.7187C156.139 24.3312 155.876 24.5286 155.299 24.5134C154.494 24.4881 153.684 24.478 152.879 24.5134C152.201 24.5438 151.963 24.2755 151.968 23.6073C151.988 20.4181 151.978 17.2289 151.978 14.0397C151.978 12.0958 151.517 11.2504 150.242 10.8505C148.743 10.3797 146.42 11.1036 145.625 12.273C145.407 12.5919 145.453 12.9311 145.453 13.2703C145.453 16.6619 145.427 20.0536 145.468 23.4453C145.478 24.2806 145.195 24.5894 144.369 24.5185C143.711 24.4628 143.043 24.4679 142.385 24.5185C141.641 24.5742 141.368 24.3059 141.378 23.5415C141.413 20.9851 141.393 18.4287 141.393 15.8672L141.388 15.8722Z" fill="white"/>
<path d="M93.5854 17.2239C92.1426 17.2239 90.6999 17.2492 89.2622 17.2138C88.589 17.1986 88.4219 17.477 88.4776 18.0997C88.6598 20.1701 90.0773 21.4306 92.497 21.5724C93.965 21.6584 95.428 21.6129 96.8809 21.294C97.868 21.0763 98.0452 21.2231 98.03 22.2608C97.9946 24.5996 98.4046 24.1642 96.0962 24.5895C93.9802 24.9793 91.849 24.959 89.7533 24.468C87.0096 23.8251 85.253 22.114 84.5797 19.3754C84.0228 17.1075 84.0077 14.8194 84.5847 12.5566C85.7592 7.96006 89.3685 6.71475 93.064 7.18554C96.891 7.67151 98.4046 10.3899 98.8653 13.8778C98.9615 14.6169 98.9564 15.3661 99.0121 16.1102C99.0779 16.9151 98.7438 17.2644 97.9136 17.2442C96.4708 17.2087 95.0332 17.2341 93.5904 17.2341L93.5854 17.2239ZM91.7275 14.6776C92.1882 14.6776 92.6489 14.6776 93.1045 14.6776C95.266 14.6776 95.261 14.9409 94.8661 12.5515C94.5928 10.8962 93.4892 9.89383 92.0009 9.84827C90.1532 9.78752 89.1002 10.5772 88.6497 12.3844C88.5485 12.7995 88.5535 13.2349 88.4472 13.65C88.2346 14.5005 88.6295 14.7232 89.3989 14.6878C90.1734 14.6523 90.948 14.6776 91.7225 14.6776H91.7275Z" fill="white"/>
<path d="M121.883 15.5434C121.883 14.2474 121.858 12.9566 121.893 11.6606C121.914 10.9671 121.691 10.6836 120.957 10.6786C118.917 10.6634 118.917 10.6381 118.922 8.60306C118.922 7.80998 119.32 7.41344 120.117 7.41344C121.914 7.41344 121.898 7.41344 122.071 5.57585C122.182 4.40648 122.359 3.24217 122.491 2.07279C122.557 1.48051 122.835 1.22234 123.447 1.23246C126.444 1.27296 126.004 0.893295 126.034 3.6927C126.044 4.61403 126.065 5.53535 126.029 6.45161C125.999 7.17045 126.323 7.43369 127.006 7.4185C127.958 7.39825 128.91 7.41344 129.861 7.4185C130.064 7.4185 130.337 7.35775 130.454 7.459C131.269 8.19808 130.747 9.17509 130.833 10.0407C130.889 10.5976 130.418 10.7039 129.932 10.6988C128.925 10.6836 127.912 10.714 126.905 10.6887C126.287 10.6735 126.019 10.8912 126.029 11.5391C126.055 13.8374 125.994 16.1407 126.055 18.439C126.105 20.4132 126.91 21.5877 129.573 21.3092C130.864 21.1726 131.005 21.2485 131.016 22.5799C131.026 24.8579 131.117 24.4731 129.041 24.8022C127.983 24.9692 126.91 24.8579 125.872 24.5946C123.372 23.9568 121.969 22.1394 121.898 19.4312C121.868 18.1403 121.893 16.8444 121.893 15.5484L121.883 15.5434Z" fill="white"/>
<path d="M58.1447 9.60015C58.9546 8.62821 59.7494 7.85369 60.858 7.50439C61.6882 7.24116 62.5336 7.09941 63.4043 7.12979C64.0877 7.1551 64.4674 7.44365 64.4218 8.19792C64.3814 8.82563 64.3965 9.46347 64.4218 10.0912C64.4421 10.805 64.1181 11.0783 63.4145 10.9973C61.8604 10.8151 60.4683 11.215 59.2078 12.1414C58.7218 12.5008 58.5244 12.926 58.5294 13.5284C58.5497 16.7429 58.5395 19.9625 58.5395 23.177C58.5395 24.4881 58.5193 24.5084 57.1677 24.5084C56.5653 24.5084 55.9578 24.473 55.3554 24.5185C54.5708 24.5742 54.2772 24.2502 54.2822 23.4706C54.3126 20.8282 54.2923 18.1857 54.2923 15.5432C54.2923 13.1589 54.3126 10.7746 54.2772 8.39534C54.267 7.64613 54.51 7.31203 55.2744 7.41327C55.3858 7.42846 55.5022 7.41327 55.6186 7.41327C57.0361 7.41327 57.8815 8.14223 58.1548 9.60015H58.1447Z" fill="white"/>
<path d="M133.82 15.9737C133.82 13.4425 133.845 10.9165 133.805 8.38539C133.795 7.62606 134.053 7.3527 134.807 7.40332C135.551 7.45394 136.305 7.45394 137.055 7.40332C137.774 7.35776 138.011 7.63618 138.006 8.34489C137.976 10.9013 137.996 13.4628 137.996 16.0192C137.996 18.52 137.976 21.0207 138.006 23.5214C138.016 24.2656 137.768 24.5693 137.004 24.5187C136.23 24.4681 135.445 24.4833 134.67 24.5187C134.027 24.544 133.81 24.2706 133.815 23.648C133.835 21.0916 133.825 18.5301 133.825 15.9737H133.82Z" fill="white"/>
<path d="M13.4503 29.4846C15.3233 29.4846 17.1963 29.4846 19.0693 29.4846C19.4186 29.4846 19.7983 29.4644 19.9704 29.844C20.1425 30.2288 19.9704 30.5528 19.7122 30.8616C17.8645 33.0636 16.032 35.2809 14.1843 37.4779C13.592 38.1815 13.2832 38.1765 12.6758 37.4475C10.8483 35.2657 9.03095 33.0788 7.20856 30.8919C6.96557 30.6034 6.7074 30.3148 6.88457 29.8947C7.08706 29.4188 7.52241 29.4796 7.92233 29.4796C9.76498 29.4796 11.6076 29.4796 13.4553 29.4796L13.4503 29.4846Z" fill="white"/>
<path d="M22.9015 17.5227C22.9015 15.4573 22.9218 13.3919 22.8863 11.3265C22.8762 10.7494 22.9926 10.5115 23.6254 10.552C24.5113 10.6127 25.4073 10.5925 26.2983 10.5571C26.7893 10.5368 27.012 10.6279 27.012 11.2C26.9867 15.4472 26.9918 19.6944 27.012 23.9416C27.012 24.3871 26.8855 24.5389 26.4299 24.5237C25.4529 24.4934 24.4708 24.4832 23.4938 24.5237C22.9774 24.544 22.8863 24.3567 22.8914 23.891C22.9116 21.7699 22.9015 19.6438 22.9015 17.5227Z" fill="white"/>
<path d="M135.976 0.00224988C137.814 0.00224988 138.619 0.812205 138.502 2.55361C138.442 3.44456 138.006 4.05203 137.136 4.33551C136.543 4.52788 135.941 4.54306 135.344 4.46713C133.926 4.29501 133.233 3.43444 133.304 1.99677C133.364 0.77677 134.169 0.0629965 135.551 0.00224988C135.693 -0.00281235 135.84 0.00224988 135.981 0.00224988H135.976Z" fill="white"/>
<path d="M25.1036 8.61311C23.4989 8.61311 22.6079 8.03602 22.4257 6.98307C22.1624 5.49984 22.8965 4.50765 24.4101 4.35578C24.8353 4.31022 25.2808 4.31528 25.7009 4.39122C26.8906 4.59877 27.4676 5.29735 27.4626 6.46673C27.4626 7.65129 26.9108 8.30431 25.7009 8.53718C25.4478 8.5878 25.1896 8.60298 25.1086 8.61311H25.1036Z" fill="white"/>
</svg>
